<?xml version="1.0" standalone="no"?>
<!DOCTYPE svg PUBLIC "-//W3C//DTD SVG 20010904//EN"
 "http://www.w3.org/TR/2001/REC-SVG-20010904/DTD/svg10.dtd">
<svg version="1.0" xmlns="http://www.w3.org/2000/svg"
 width="236.000000pt" height="200.000000pt" viewBox="0 0 236.000000 300.000000"
 preserveAspectRatio="xMidYMid meet">
<metadata>
Created by potrace 1.10, written by Peter Selinger 2001-2011
</metadata>
<g transform="translate(0.000000,300.000000) scale(0.100000,-0.100000)"
fill="#000000" stroke="none">
<path d="M448 2794 c3 -88 1 -107 -18 -143 -60 -119 8 -292 140 -353 73 -34
147 -35 217 -4 93 43 140 98 162 193 15 61 8 120 -21 179 -17 34 -19 56 -17
135 l4 94 -235 0 -235 0 3 -101z m442 -8 c0 -64 5 -95 21 -132 16 -35 21 -66
20 -112 -2 -72 -24 -138 -42 -126 -8 5 -9 3 -4 -5 4 -7 -3 -23 -16 -38 -41
-43 -102 -73 -166 -79 -52 -6 -68 -3 -117 19 -38 18 -55 31 -50 38 4 8 3 9 -5
5 -14 -9 -57 42 -53 62 2 8 -1 11 -6 8 -16 -10 -42 70 -42 129 0 50 26 129 39
120 3 -2 5 41 3 96 l-3 99 210 0 211 0 0 -84z"/>
<path d="M628 2686 c-15 -8 -30 -11 -34 -8 -4 4 -4 2 -1 -4 4 -6 -5 -22 -18
-34 -59 -55 -54 -138 11 -201 32 -31 40 -34 98 -34 58 0 67 3 104 35 40 35 40
36 41 105 1 60 -2 72 -19 83 -12 7 -18 17 -15 23 4 5 1 8 -7 7 -7 -2 -12 4
-10 12 2 8 0 12 -3 8 -4 -4 -20 -1 -36 7 -35 19 -76 19 -111 1z m132 -38 c70
-55 66 -162 -9 -214 -61 -43 -170 -1 -190 73 -33 120 102 216 199 141z"/>
<path d="M451 2614 c0 -11 3 -14 6 -6 3 7 2 16 -1 19 -3 4 -6 -2 -5 -13z"/>
<path d="M901 2614 c0 -11 3 -14 6 -6 3 7 2 16 -1 19 -3 4 -6 -2 -5 -13z"/>
<path d="M901 2484 c0 -11 3 -14 6 -6 3 7 2 16 -1 19 -3 4 -6 -2 -5 -13z"/>
<path d="M1055 2660 l0 -235 75 0 75 0 -3 163 -3 162 451 0 450 0 0 -1090 0
-1090 -485 2 -485 3 0 -72 0 -73 560 0 560 0 0 1233 -1 1232 -597 0 -597 0 0
-235z m45 198 c0 9 118 12 558 12 l557 0 -2 -1207 -1 -1208 -531 -2 -531 -3 0
50 c0 45 2 50 23 50 12 0 223 0 469 0 395 0 448 1 462 16 14 14 16 122 16
1098 0 828 -3 1085 -12 1094 -17 17 -899 17 -916 0 -8 -8 -12 -58 -12 -160 l0
-148 -50 0 -50 0 0 213 c0 140 4 207 10 197 6 -10 10 -11 10 -2z"/>
<path d="M105 2232 c3 -8 5 -218 5 -468 l0 -454 39 -39 c23 -23 51 -40 70 -43
38 -6 98 14 116 39 12 15 14 -64 15 -569 l0 -588 333 0 332 0 -3 589 -2 590
29 -30 c24 -24 38 -29 77 -29 55 0 104 26 125 67 11 23 15 118 19 488 l5 460
-220 -2 -220 -3 -71 -77 c-40 -43 -74 -76 -76 -73 -2 3 -34 38 -71 78 l-67 73
-220 2 c-180 2 -219 0 -215 -11z m459 -42 c15 -17 24 -35 21 -41 -4 -5 -2 -8
3 -7 5 2 18 -6 28 -17 48 -51 61 -57 86 -44 13 7 26 12 31 11 4 -1 7 6 7 17 0
21 23 44 34 33 4 -4 6 -2 4 3 -4 12 37 55 53 55 5 0 7 5 4 10 -4 7 65 10 199
10 l206 0 0 -435 c0 -479 -1 -490 -59 -519 -36 -19 -61 -20 -62 -3 0 9 -2 10
-6 0 -7 -19 -26 -16 -67 12 l-37 25 -9 -26 c-6 -15 -10 -247 -10 -585 l0 -560
-310 2 -310 1 0 568 c0 487 -2 569 -15 580 -11 10 -19 8 -39 -7 -39 -31 -108
-29 -143 3 -15 14 -22 23 -16 19 9 -4 11 -1 7 9 -3 9 -10 14 -14 11 -4 -3 -11
2 -14 11 -3 9 -6 213 -6 455 l0 439 203 0 204 0 27 -30z"/>
<path d="M520 2206 c0 -2 7 -7 16 -10 8 -3 12 -2 9 4 -6 10 -25 14 -25 6z"/>
<path d="M228 2133 c-10 -2 -18 -8 -19 -11 0 -4 -2 -23 -5 -42 -7 -62 -1 -65
159 -68 165 -4 210 4 212 35 1 12 -2 21 -6 20 -4 -1 -23 15 -42 36 l-35 37
-123 -1 c-68 -1 -132 -3 -141 -6z m302 -58 l44 -45 -177 0 -177 0 0 45 0 45
133 0 133 0 44 -45z"/>
<path d="M835 2098 c-51 -50 -55 -65 -19 -78 34 -13 300 -13 325 0 14 8 19 21
19 54 0 24 -6 48 -12 54 -7 5 -71 11 -141 11 l-128 2 -44 -43z m310 -23 l0
-45 -174 0 -174 0 39 44 39 44 135 1 135 1 0 -45z"/>
<path d="M594 1851 c-29 -28 -30 -58 -5 -88 23 -28 71 -30 94 -5 21 23 22 75
2 92 -8 7 -13 15 -11 19 2 3 -9 6 -26 6 -19 0 -40 -9 -54 -24z m84 -40 c8 -55
-64 -70 -83 -17 -8 24 -6 31 14 47 21 17 26 18 45 6 12 -8 22 -24 24 -36z"/>
<path d="M596 1679 c-30 -24 -33 -53 -8 -90 21 -30 60 -33 91 -5 28 25 27 67
-2 94 -29 27 -47 28 -81 1z m72 -11 c7 -7 12 -24 12 -38 0 -30 -16 -50 -41
-50 -23 0 -49 27 -49 50 0 39 52 64 78 38z"/>
<path d="M592 1497 c-12 -13 -22 -33 -22 -46 0 -27 42 -71 68 -71 28 0 62 42
62 77 0 59 -67 84 -108 40z m77 -11 c19 -22 9 -68 -15 -77 -29 -10 -64 15 -64
46 0 39 55 60 79 31z"/>
<path d="M172 1438 c-22 -22 -14 -84 14 -117 34 -41 79 -42 117 -3 34 36 38
105 8 122 -27 14 -124 13 -139 -2z m138 -38 c0 -40 -24 -86 -47 -92 -47 -12
-83 28 -83 93 l0 29 65 0 65 0 0 -30z"/>
<path d="M1058 1439 c-21 -12 -24 -69 -6 -102 42 -80 142 -54 155 40 7 55 -13
73 -80 73 -29 0 -60 -5 -69 -11z m132 -34 c0 -40 -27 -95 -47 -96 -55 -4 -83
24 -83 82 l0 39 65 0 c63 0 65 -1 65 -25z"/>
<path d="M1216 1353 c-6 -14 -5 -15 5 -6 7 7 10 15 7 18 -3 3 -9 -2 -12 -12z"/>
<path d="M391 1254 c0 -11 3 -14 6 -6 3 7 2 16 -1 19 -3 4 -6 -2 -5 -13z"/>
<path d="M576 1202 c-55 -1 -106 -8 -113 -14 -10 -8 -13 -105 -13 -474 0 -407
2 -464 16 -478 23 -24 405 -24 428 0 14 14 16 71 16 477 0 254 -4 467 -8 473
-8 13 -170 21 -326 16z m314 -489 l0 -473 -210 0 -210 0 0 473 0 472 210 0
210 0 0 -472z"/>
<path d="M935 725 c0 -247 1 -347 2 -222 2 126 2 328 0 450 -1 122 -2 20 -2
-228z"/>
<path d="M435 710 c0 -239 1 -337 2 -218 2 120 2 316 0 435 -1 120 -2 22 -2
-217z"/>
<path d="M1891 1712 c-48 -24 -64 -65 -44 -114 12 -30 23 -40 52 -49 108 -32
167 116 65 164 -42 20 -32 20 -73 -1z m83 -27 c22 -23 28 -49 16 -81 -9 -23
-13 -25 -20 -14 -8 13 -10 12 -10 -2 0 -10 -4 -18 -9 -18 -5 0 -16 -2 -23 -5
-21 -8 -68 40 -68 70 0 14 3 24 8 24 19 -3 26 2 12 11 -12 7 -10 11 10 19 37
14 67 13 84 -4z"/>
<path d="M2083 403 c32 -2 81 -2 110 0 29 2 3 3 -58 3 -60 0 -84 -1 -52 -3z"/>
<path d="M1317 253 l-97 -98 455 0 455 0 -97 98 -98 97 -260 0 -260 0 -98 -97z
m629 56 c10 -11 18 -23 17 -25 -2 -2 -1 -3 1 -1 9 5 45 -36 39 -46 -3 -5 -1
-7 4 -4 10 6 31 -12 47 -40 6 -10 -73 -13 -381 -12 -213 1 -380 3 -370 6 9 2
17 9 17 14 0 6 -6 7 -12 3 -7 -3 7 14 32 39 25 25 50 42 55 39 6 -3 7 -1 2 3
-4 5 0 16 9 26 14 16 40 18 268 19 246 1 253 0 272 -21z"/>
<path d="M2050 286 c0 -2 7 -7 16 -10 8 -3 12 -2 9 4 -6 10 -25 14 -25 6z"/>
<path d="M547 83 c84 -2 222 -2 306 0 83 1 15 3 -153 3 -168 0 -236 -2 -153
-3z"/>
<path d="M718 43 c45 -2 119 -2 165 0 45 1 8 3 -83 3 -91 0 -128 -2 -82 -3z"/>
<path d="M978 43 c7 -3 16 -2 19 1 4 3 -2 6 -13 5 -11 0 -14 -3 -6 -6z"/>
</g>
</svg>
