<?xml version="1.0" standalone="no"?>
<!DOCTYPE svg PUBLIC "-//W3C//DTD SVG 20010904//EN"
 "http://www.w3.org/TR/2001/REC-SVG-20010904/DTD/svg10.dtd">
<svg version="1.0" xmlns="http://www.w3.org/2000/svg"
 width="1024.000000pt" height="1024.000000pt" viewBox="0 0 1024.000000 1024.000000"
 preserveAspectRatio="xMidYMid meet">
<metadata>
Created by potrace 1.16, written by Peter Selinger 2001-2019
</metadata>
<g transform="translate(0.000000,1024.000000) scale(0.100000,-0.100000)"
fill="#000000" stroke="none">
<path d="M5507 10123 c-4 -6 -100 -13 -214 -16 -231 -7 -285 -16 -549 -91
-355 -102 -688 -242 -963 -405 -259 -154 -410 -312 -526 -552 -44 -91 -95
-263 -95 -319 0 -14 -3 -30 -7 -33 -3 -4 -5 -34 -4 -67 2 -44 -1 -60 -11 -60
-8 0 -7 -4 5 -11 10 -6 17 -22 17 -38 0 -45 47 -195 84 -269 100 -199 243
-323 606 -527 324 -182 435 -267 554 -425 69 -92 216 -361 216 -396 0 -6 -16
-15 -35 -18 -19 -4 -88 -23 -153 -43 -590 -179 -1052 -624 -1261 -1213 -22
-63 -45 -134 -51 -157 l-11 -43 -139 0 c-82 0 -141 4 -145 10 -4 6 -12 4 -22
-5 -11 -12 -37 -16 -97 -16 -44 0 -107 -3 -138 -6 -41 -3 -58 -1 -58 7 0 7 -7
4 -17 -5 -12 -13 -28 -16 -59 -12 -23 2 -48 1 -55 -4 -8 -4 -53 -11 -99 -14
-133 -11 -141 -12 -215 -24 -309 -52 -662 -187 -927 -354 -642 -405 -999
-1018 -953 -1637 12 -157 77 -375 163 -545 175 -349 562 -740 1060 -1072 240
-160 454 -260 637 -298 166 -35 404 -18 573 39 332 113 547 395 578 756 3 41
13 85 20 98 8 12 10 22 4 22 -14 0 -13 273 1 287 8 8 8 25 -1 62 -9 39 -9 58
0 86 9 28 9 39 -1 51 -26 31 16 299 67 425 55 135 127 259 213 367 l42 53 109
-104 c216 -210 436 -346 711 -442 228 -79 382 -107 591 -106 94 1 159 -3 163
-9 4 -6 12 -6 23 -1 9 5 58 14 108 20 51 6 142 24 204 39 l112 28 22 -35 c13
-20 60 -97 106 -171 214 -346 429 -639 599 -814 302 -309 626 -510 1039 -646
121 -40 375 -90 454 -90 25 0 49 -7 60 -17 12 -10 18 -12 18 -4 0 9 24 12 85
10 47 -1 88 1 92 5 3 3 25 6 48 6 57 0 247 35 330 61 361 111 657 359 854 714
103 185 203 473 246 710 7 39 25 131 38 205 30 159 38 226 50 442 3 56 10 94
21 109 20 29 20 39 0 39 -12 0 -14 9 -12 43 2 27 7 41 16 39 16 -3 15 4 -4 33
-10 15 -18 55 -21 98 -8 114 -10 127 -28 212 -21 98 -60 194 -127 311 -67 117
-122 188 -210 269 -267 245 -633 292 -992 126 -45 -21 -173 -92 -286 -158
-250 -147 -325 -185 -440 -223 -165 -56 -385 -74 -583 -49 -83 11 -88 13 -84
33 3 12 17 68 31 125 31 121 56 269 56 327 0 22 3 43 6 47 7 7 8 186 1 207 -3
8 -8 51 -12 95 -5 65 -25 172 -60 327 -12 55 -74 218 -116 306 -88 187 -224
384 -353 512 -36 36 -66 71 -66 78 0 7 12 31 27 55 58 92 255 483 340 677 81
183 155 386 168 462 3 16 12 56 20 90 33 146 67 417 67 543 0 156 -41 439 -92
630 -109 408 -320 735 -620 959 -186 139 -437 242 -648 266 -41 4 -78 13 -82
20 -4 7 -10 8 -13 3z m1 -1525 c11 -14 162 -475 162 -496 0 -10 -19 -12 -77
-10 l-78 3 -9 43 -9 42 -82 0 -82 0 -9 -42 -9 -43 -83 -3 c-45 -2 -82 -1 -82
2 0 7 161 500 167 509 8 13 180 8 191 -5z m940 -14 c7 -14 43 -123 81 -242 38
-119 72 -225 76 -235 7 -16 1 -18 -76 -15 l-84 3 -9 43 -9 42 -78 0 -79 0 -12
-45 -12 -45 -83 0 c-61 0 -81 3 -78 13 2 6 40 123 85 260 l82 247 92 0 c90 0
93 -1 104 -26z m-1433 -15 c170 -87 135 -411 -50 -464 -37 -11 -86 -15 -166
-13 l-114 3 -3 253 -2 253 143 -3 c130 -3 147 -5 192 -29z m1065 -29 l0 -60
-60 0 -60 0 0 -195 0 -195 -75 0 -75 0 -1 188 c-1 103 -1 190 0 195 0 4 -28 7
-64 7 l-65 0 0 60 0 60 200 0 200 0 0 -60z m-880 -1873 c245 -25 558 -147 774
-301 234 -168 429 -399 543 -645 47 -100 117 -300 127 -361 38 -227 44 -317
24 -351 -10 -17 -10 -23 0 -26 17 -6 16 -91 -3 -222 -20 -136 -47 -241 -91
-354 -178 -454 -520 -798 -971 -978 -87 -34 -294 -87 -368 -93 -27 -3 -69 -8
-92 -12 -29 -4 -48 -2 -58 6 -10 9 -15 9 -15 1 0 -14 -126 -15 -135 -1 -5 8
-11 7 -20 0 -9 -8 -34 -9 -72 -5 -562 66 -1026 369 -1301 850 -88 155 -169
373 -187 505 -3 25 -10 72 -15 105 -5 33 -10 90 -10 125 0 36 0 72 0 80 -1 8
1 62 3 120 10 228 68 436 183 660 259 503 765 844 1339 903 50 6 271 1 345 -6z
m-4205 -2552 l0 -60 -62 -3 -63 -3 0 -195 0 -195 -72 3 -73 3 -3 193 -2 192
-60 0 -60 0 0 58 c0 32 3 62 7 66 4 3 93 5 197 4 l191 -3 0 -60z m429 41 c45
-23 92 -83 107 -140 17 -62 7 -193 -19 -242 -42 -81 -111 -118 -222 -119 -119
0 -197 49 -235 149 -27 71 -18 207 18 269 48 82 104 107 227 104 59 -2 97 -8
124 -21z m529 13 c50 -14 101 -60 128 -117 27 -54 32 -182 10 -245 -17 -50
-64 -103 -115 -130 -60 -31 -183 -30 -249 2 -89 43 -135 141 -124 267 9 116
65 197 155 224 39 12 151 12 195 -1z m375 -191 l2 -198 100 0 100 0 0 -60 0
-60 -172 2 -173 3 -3 245 c-1 134 0 251 3 258 3 9 24 12 72 10 l68 -3 3 -197z
m547 191 c63 -18 66 -23 42 -82 -11 -29 -21 -53 -22 -55 -1 -1 -21 5 -45 13
-77 27 -146 15 -122 -22 4 -5 45 -29 91 -53 74 -39 86 -49 103 -88 45 -100
-11 -198 -126 -222 -64 -13 -139 -7 -193 15 -32 14 -33 15 -33 74 0 34 3 61 6
61 3 0 30 -7 59 -16 30 -8 76 -14 102 -12 40 3 48 6 48 23 0 15 -20 31 -80 61
-98 51 -125 85 -125 158 0 101 66 155 190 156 36 0 83 -5 105 -11z m3473
-1024 c29 -9 52 -18 52 -20 0 -6 -41 -109 -45 -113 -1 -2 -25 4 -53 13 -64 21
-107 17 -107 -10 0 -14 22 -32 84 -65 62 -34 89 -54 102 -80 48 -88 -3 -196
-107 -230 -41 -14 -163 -9 -206 9 -27 10 -28 13 -28 81 l0 71 28 -15 c47 -24
138 -39 162 -26 35 19 19 43 -52 80 -105 55 -138 95 -138 167 0 124 141 187
308 138z m427 -50 l0 -60 -80 -5 c-77 -5 -80 -6 -80 -30 0 -24 3 -25 75 -30
l75 -5 0 -60 0 -60 -75 -5 -75 -5 0 -38 0 -37 83 0 82 0 0 -60 0 -61 -157 3
-158 3 -3 235 c-1 129 0 245 3 258 5 22 7 22 158 20 l152 -3 0 -60z m373 40
c50 -20 79 -54 88 -101 10 -55 -4 -101 -43 -140 l-35 -35 54 -82 c30 -45 63
-94 72 -109 l18 -28 -84 0 -84 0 -53 90 c-29 50 -59 90 -67 90 -11 0 -14 -20
-14 -90 l0 -90 -75 0 -75 0 0 253 c0 140 3 257 8 261 14 15 244 0 290 -19z
m327 -100 c18 -66 38 -140 45 -164 l12 -45 42 165 42 164 82 3 c59 2 82 -1 82
-9 0 -7 -37 -124 -82 -261 l-82 -248 -86 0 -86 0 -82 254 c-45 140 -82 257
-82 261 0 3 37 5 82 3 l81 -3 32 -120z m500 -135 l0 -255 -75 0 -75 0 -3 235
c-1 129 0 245 3 258 5 22 10 23 78 20 l72 -3 0 -255z m462 237 l32 -17 -21
-52 c-12 -29 -22 -54 -24 -56 -1 -1 -29 5 -62 14 -107 30 -152 -9 -152 -131 0
-83 18 -121 64 -133 35 -10 111 -1 145 17 16 9 20 6 25 -21 9 -46 -3 -97 -26
-109 -33 -17 -160 -23 -204 -9 -104 33 -158 121 -158 255 0 125 43 201 139
247 51 24 192 21 242 -5z m403 -42 l0 -65 -80 0 -80 0 0 -30 0 -30 75 0 75 0
0 -65 0 -65 -75 0 -75 0 0 -40 0 -40 80 0 80 0 0 -60 0 -60 -155 0 -155 0 0
253 c0 140 3 257 7 260 3 4 73 7 155 7 l148 0 0 -65z m369 49 c58 -17 59 -19
26 -98 -12 -29 -20 -36 -33 -31 -38 15 -120 28 -136 22 -33 -13 -10 -40 74
-87 98 -54 120 -83 120 -155 0 -108 -89 -171 -230 -163 -43 3 -89 12 -107 22
-31 16 -33 19 -33 75 0 32 3 60 6 64 4 3 18 0 33 -7 46 -24 137 -39 161 -26
37 20 24 44 -42 76 -110 52 -148 97 -148 178 0 37 6 52 32 82 18 20 46 43 63
50 41 18 150 17 214 -2z"/>
<path d="M4840 8345 l0 -135 25 0 c38 0 79 25 93 55 15 33 16 136 1 168 -13
29 -48 47 -89 47 l-30 0 0 -135z"/>
<path d="M4863 5660 c-123 -25 -251 -99 -347 -201 -121 -128 -173 -251 -183
-429 -5 -88 -2 -120 17 -195 48 -197 183 -360 369 -448 100 -48 176 -63 293
-61 118 3 134 6 223 38 248 90 425 328 442 596 8 114 -15 216 -74 339 -36 76
-59 107 -121 170 -90 89 -161 133 -275 171 -69 24 -98 28 -192 28 -60 0 -129
-4 -152 -8z"/>
<path d="M1233 4036 c-24 -21 -28 -32 -31 -95 -7 -119 16 -161 88 -161 72 0
95 42 88 161 -3 63 -7 74 -31 95 -16 13 -41 24 -57 24 -16 0 -41 -11 -57 -24z"/>
<path d="M1795 4036 c-29 -29 -39 -77 -33 -153 4 -46 10 -61 32 -80 36 -31 89
-31 121 1 45 45 42 189 -6 237 -27 27 -84 25 -114 -5z"/>
<path d="M2805 9359 c-699 -354 -1308 -873 -1760 -1499 -55 -76 -69 -103 -73
-140 -3 -39 0 -51 23 -78 14 -17 43 -36 63 -41 63 -18 93 6 217 171 163 217
250 317 450 515 352 350 690 599 1127 829 90 47 173 98 185 112 16 19 23 40
23 71 0 36 -6 49 -34 77 -50 50 -94 47 -221 -17z"/>
<path d="M9258 7134 c-32 -17 -58 -62 -58 -100 0 -15 29 -97 65 -181 36 -84
88 -213 114 -286 122 -335 235 -844 246 -1109 2 -48 7 -93 10 -98 3 -5 7 -38
7 -72 1 -86 2 -503 0 -607 -1 -54 4 -94 13 -111 16 -31 66 -58 98 -55 12 1 30
3 39 4 9 0 30 14 46 30 24 25 30 41 36 97 4 38 12 74 18 81 6 7 6 13 1 13 -5
0 -9 117 -10 268 -1 244 -4 324 -19 482 -9 106 -36 276 -64 420 -16 80 -31
157 -34 171 -13 78 -93 357 -144 504 -115 331 -204 525 -251 550 -37 19 -78
19 -113 -1z"/>
<path d="M2244 1161 c-29 -18 -54 -63 -54 -98 0 -61 68 -116 358 -287 559
-330 1274 -566 1910 -632 153 -16 177 -16 199 -4 80 46 89 158 17 205 -13 8
-67 20 -121 25 -227 25 -464 66 -668 116 -479 118 -977 334 -1419 618 -131 83
-165 92 -222 57z"/>
</g>
</svg>
